HIERARCHY
ROOT hip
{
	OFFSET 0.000000 0.000000 0.000000 
	CHANNELS 6 Xposition Yposition Zposition Xrotation Zrotation Yrotation
	JOINT abdomen
	{
		OFFSET 0.000000 3.402643 0.000000 
		CHANNELS 3 Xrotation Zrotation Yrotation
		JOINT chest
		{
			OFFSET 0.000000 8.438565 -0.680529 
			CHANNELS 3 Xrotation Zrotation Yrotation
			JOINT neck
			{
				OFFSET 0.000000 10.207942 -0.272212 
				CHANNELS 3 Xrotation Zrotation Yrotation
				JOINT head
				{
					OFFSET 0.000000 3.130431 0.000000 
					CHANNELS 3 Xrotation Zrotation Yrotation
					End Site
					{
						OFFSET 0.000000 3.130435 0.000000 
					}
				}
			}
			JOINT lCollar
			{
				OFFSET 3.470700 6.669187 -0.816635 
				CHANNELS 3 Yrotation Zrotation Xrotation
				JOINT lShldr
				{
					OFFSET 3.198488 0.000000 0.000000 
					CHANNELS 3 Zrotation Yrotation Xrotation
					JOINT lForeArm
					{
						OFFSET 10.139888 0.000000 0.000000 
						CHANNELS 3 Yrotation Zrotation Xrotation
						JOINT lHand
						{
							OFFSET 8.370511 0.000000 0.000000 
							CHANNELS 3 Zrotation Yrotation Xrotation
							End Site
							{
								OFFSET 4.083176 0.000000 0.000000 
							}
						}
					}
				}
			}
			JOINT rCollar
			{
				OFFSET -3.470700 6.669187 -0.816635 
				CHANNELS 3 Yrotation Zrotation Xrotation
				JOINT rShldr
				{
					OFFSET -3.198488 0.000000 0.000000 
					CHANNELS 3 Zrotation Yrotation Xrotation
					JOINT rForeArm
					{
						OFFSET -10.139888 0.000000 0.000000 
						CHANNELS 3 Yrotation Zrotation Xrotation
						JOINT rHand
						{
							OFFSET -8.370511 0.000000 0.000000 
							CHANNELS 3 Zrotation Yrotation Xrotation
							End Site
							{
								OFFSET -4.083176 0.000000 0.000000 
							}
						}
					}
				}
			}
		}
	}
	JOINT lThigh
	{
		OFFSET 5.308129 -1.633274 1.361059 
		CHANNELS 3 Xrotation Zrotation Yrotation
		JOINT lShin
		{
			OFFSET -2.041588 -20.007561 0.000000 
			CHANNELS 3 Xrotation Zrotation Yrotation
			JOINT lFoot
			{
				OFFSET 0.000000 -19.190928 -1.224953 
				CHANNELS 3 Xrotation Yrotation Zrotation
				End Site
				{
					OFFSET 0.000000 -2.449906 4.627600 
				}
			}
		}
	}
	JOINT rThigh
	{
		OFFSET -5.308129 -1.633274 1.361059 
		CHANNELS 3 Xrotation Zrotation Yrotation
		JOINT rShin
		{
			OFFSET 2.041588 -20.007561 0.000000 
			CHANNELS 3 Xrotation Zrotation Yrotation
			JOINT rFoot
			{
				OFFSET 0.000000 -19.190928 -1.224953 
				CHANNELS 3 Xrotation Yrotation Zrotation
				End Site
				{
					OFFSET 0.000000 -2.449906 4.627600 
				}
			}
		}
	}
}
MOTION
Frames: 20
Frame Time: 0.016667
0.495864 53.719212 -3.011688 -11.716605 1.425732 0.478853 28.271824 -1.491990 -0.619664 -0.357018 1.630489 -1.816745 -8.601604 2.935896 -0.374958 7.973676 5.539369 -63.529987 -4.120364 -7.930641 -0.418674 -64.243378 13.994437 -20.064075 -5.947281 -5.000000 45.000000 -24.815294 2.786492 30.124891 11.613180 12.475863 -0.654349 52.970768 -11.616619 -14.172891 8.621591 5.000000 45.000000 16.184158 -13.351031 22.645905 18.545807 7.605305 7.484822 4.798542 -4.673561 -0.567011 -9.952618 9.039891 -2.549190 18.309013 -10.849222 -1.284509 1.140076 3.254068 0.143915 -4.618767 -12.741037 8.311759 
0.499740 53.720917 -3.006879 -11.696172 1.445256 0.508144 28.281694 -1.505626 -0.636722 -0.396002 1.601187 -1.816741 -8.592156 2.984174 -0.382256 7.918081 5.513902 -63.545315 -4.139462 -7.872125 -0.415659 -64.322533 13.999775 -20.044580 -5.974271 -5.000000 45.000000 -24.799604 2.875257 30.100330 11.593649 12.475863 -0.654349 53.069870 -11.633687 -14.198061 8.628193 5.000000 45.000000 16.167000 -13.472443 22.689758 18.538877 7.567139 7.415763 4.796591 -4.661919 -0.547237 -10.031587 9.108305 -2.553656 18.327972 -10.858307 -1.327094 1.101920 3.246350 0.092586 -4.570907 -12.729642 8.340119 
0.503517 53.721607 -3.003093 -11.675718 1.464779 0.537433 28.291693 -1.507047 -0.659053 -0.396548 1.601175 -1.846030 -8.621650 3.013140 -0.386634 7.897138 5.491969 -63.471008 -4.119787 -7.852623 -0.414655 -64.341354 13.964330 -19.997330 -6.034410 -5.000000 45.000000 -24.866116 2.860796 30.064129 11.586231 12.493405 -0.664699 53.115871 -11.602193 -14.198371 8.624562 5.000000 45.000000 16.151936 -13.553064 22.685600 18.508265 7.566680 7.455707 4.827318 -4.643899 -0.558857 -10.057638 9.017264 -2.618597 18.329556 -10.859068 -1.386886 1.081734 3.232598 0.101165 -4.517702 -12.696594 8.370668 
0.507234 53.721603 -2.999989 -11.655689 1.464775 0.556958 28.291571 -1.508772 -0.682106 -0.377999 1.620690 -1.875317 -8.680375 3.032451 -0.389553 7.901091 5.478251 -63.327991 -4.061337 -7.872139 -0.415660 -64.320831 13.907384 -19.935946 -6.119353 -5.000000 45.000000 -24.995831 2.765942 30.037031 11.584569 12.534375 -0.657380 53.109577 -11.535839 -14.173641 8.603876 5.000000 45.000000 16.143938 -13.602139 22.647127 18.467175 7.546746 7.570914 4.860869 -4.608402 -0.570041 -10.106968 8.925790 -2.627066 18.326136 -10.847526 -1.424698 1.063369 3.218128 0.100012 -4.468111 -12.717313 8.387259 
0.511696 53.721249 -2.996263 -11.645672 1.464772 0.566720 28.291615 -1.510777 -0.704491 -0.359464 1.640203 -1.914369 -8.719569 3.051762 -0.392472 7.914682 5.464120 -63.185890 -4.001467 -7.882582 -0.406513 -64.320831 13.848007 -19.887936 -6.212230 -5.000000 45.000000 -25.115116 2.698901 30.029613 11.596811 12.561666 -0.668232 53.114586 -11.494419 -14.154584 8.594661 5.000000 45.000000 16.140045 -13.633988 22.648420 18.454641 7.558196 7.672504 4.874605 -4.593368 -0.590715 -10.127707 8.790251 -2.657795 18.322763 -10.855112 -1.456929 1.043326 3.214481 0.108510 -4.408357 -12.655807 8.429040 
0.519124 53.719551 -2.990051 -11.666471 1.435486 0.527668 28.349909 -1.524843 -0.699809 -0.409867 1.659703 -1.972943 -8.719769 3.080729 -0.396851 7.994242 5.435446 -63.020947 -3.933037 -7.872829 -0.406011 -64.356026 13.848081 -19.880207 -6.332606 -5.000000 45.000000 -25.250126 2.720459 30.107044 11.655290 12.551906 -0.667725 53.200188 -11.488550 -14.160455 8.608900 5.000000 45.000000 16.154762 -13.614793 22.693787 18.513285 7.548601 7.700069 4.856347 -4.584666 -0.569474 -10.168295 8.777187 -2.639851 18.359215 -10.849571 -1.425286 1.024456 3.199934 0.087836 -4.463694 -12.606862 8.444673 
0.526564 53.717842 -2.983841 -11.686993 1.406197 0.498376 28.398611 -1.522246 -0.709703 -0.450296 1.669439 -2.031803 -8.719971 3.109695 -0.401229 8.084231 5.407867 -62.846436 -3.854841 -7.863077 -0.405508 -64.389648 13.843942 -19.861473 -6.456725 -5.000000 45.000000 -25.372129 2.745215 30.181089 11.713766 12.542144 -0.667219 53.277626 -11.490911 -14.172091 8.617892 5.000000 45.000000 16.167242 -13.598347 22.750584 18.546503 7.546893 7.710219 4.835264 -4.593410 -0.538909 -10.201645 8.757530 -2.626050 18.390240 -10.815399 -1.419664 0.995124 3.168381 0.105727 -4.530509 -12.580239 8.441398 
0.535358 53.718868 -2.977755 -11.668100 1.415968 0.469090 28.398880 -1.564922 -0.736957 -0.470242 1.698735 -2.041573 -8.690482 3.159435 -0.398884 8.151243 5.380788 -62.741619 -3.845216 -7.882581 -0.406514 -64.380226 13.818576 -19.807123 -6.485852 -5.000000 45.000000 -25.243509 2.749038 30.147755 11.780343 12.573382 -0.659400 53.311947 -11.514870 -14.204866 8.676685 5.000000 45.000000 16.308872 -13.661465 22.869692 18.548780 7.518818 7.733282 4.846688 -4.567234 -0.529286 -10.193781 8.764917 -2.666527 18.416445 -10.848686 -1.416785 0.956750 3.170070 0.112915 -4.492065 -12.563971 8.473126 
0.544488 53.720585 -2.971699 -11.648975 1.425737 0.449566 28.389595 -1.612356 -0.777176 -0.489654 1.718274 -2.041581 -8.651831 3.217368 -0.407641 8.226994 5.351655 -62.646385 -3.845428 -7.911839 -0.408021 -64.367172 13.793539 -19.731232 -6.490118 -5.000000 45.000000 -25.043835 2.725466 30.070454 11.839514 12.622142 -0.661925 53.339626 -11.552847 -14.249175 8.740923 5.000000 45.000000 16.480488 -13.748901 23.011282 18.539410 7.470161 7.781625 4.839908 -4.560165 -0.528350 -10.182046 8.807338 -2.678852 18.412745 -10.876173 -1.443703 0.917580 3.161462 0.129962 -4.449933 -12.633882 8.467499 
0.554930 53.721607 -2.966449 -11.640425 1.425746 0.400753 28.369997 -1.643522 -0.779043 -0.499355 1.728044 -2.041585 -8.612291 3.228486 -0.399460 8.267228 5.344065 -62.585331 -3.855335 -7.931344 -0.409027 -64.357300 13.746322 -19.676632 -6.496472 -5.000000 45.000000 -24.831705 2.812097 29.982576 11.869158 12.651398 -0.663439 53.383629 -11.574332 -14.283978 8.781658 5.000000 45.000000 16.598196 -13.834993 23.157337 18.548061 7.449863 7.776952 4.807728 -4.565587 -0.535956 -10.188283 8.821591 -2.692706 18.394651 -10.886601 -1.425430 0.896708 3.137142 0.148442 -4.398398 -12.628201 8.473701 
0.567320 53.721607 -2.962405 -11.632587 1.386696 0.332170 28.369551 -1.636393 -0.744123 -0.489361 1.718281 -2.022054 -8.553296 3.170553 -0.390703 8.300445 5.356515 -62.568008 -3.874938 -7.941095 -0.409529 -64.341621 13.702046 -19.641273 -6.499844 -5.000000 45.000000 -24.599731 3.012312 29.850269 11.859276 12.641645 -0.662934 53.472073 -11.558437 -14.309307 8.767180 5.000000 45.000000 16.644924 -13.890925 23.288845 18.589197 7.450539 7.736929 4.751815 -4.567802 -0.521692 -10.149481 8.904094 -2.644421 18.404093 -10.886522 -1.365834 0.868932 3.114276 0.107734 -4.385454 -12.556889 8.525896 
0.579727 53.721607 -2.958364 -11.634377 1.357407 0.263829 28.368744 -1.624212 -0.696636 -0.479367 1.708518 -2.002523 -8.494377 3.122275 -0.383405 8.325867 5.375210 -62.541134 -3.904377 -7.960600 -0.410534 -64.324394 13.653522 -19.597279 -6.498805 -5.000000 45.000000 -24.371178 3.234034 29.733715 11.839745 12.641645 -0.662934 53.570156 -11.540077 -14.336574 8.757976 5.000000 45.000000 16.689165 -13.949964 23.431694 18.641174 7.451495 7.706800 4.676435 -4.588663 -0.555087 -10.138968 8.940949 -2.648851 18.396244 -10.858105 -1.318791 0.848188 3.059008 0.077749 -4.373618 -12.512410 8.590095 
0.593508 53.723312 -2.957877 -11.577136 1.367179 0.205253 28.310574 -1.651501 -0.729637 -0.469602 1.708518 -1.982992 -8.435398 3.064342 -0.374648 8.396811 5.392503 -62.574409 -3.896339 -8.008698 -0.422695 -64.259827 13.621317 -19.544121 -6.546833 -5.000000 45.000000 -24.262762 3.166841 29.804377 11.879038 12.661150 -0.663944 53.643795 -11.546266 -14.383115 8.794853 5.000000 45.000000 16.568005 -13.946295 23.464193 18.606367 7.391498 7.812939 4.643415 -4.566875 -0.532816 -10.117072 8.908932 -2.623811 18.312576 -10.883800 -1.313683 0.838813 3.031053 0.057897 -4.320146 -12.441507 8.613053 
0.607301 53.725025 -2.957392 -11.519940 1.367183 0.146676 28.272139 -1.679174 -0.761924 -0.469602 1.708518 -1.963460 -8.376492 3.016065 -0.367350 8.449258 5.414240 -62.607708 -3.896633 -8.047708 -0.426071 -64.204735 13.585758 -19.491047 -6.590490 -5.000000 45.000000 -24.159487 3.104079 29.853354 11.918334 12.680656 -0.664954 53.715244 -11.554462 -14.414257 8.822494 5.000000 45.000000 16.439941 -13.935884 23.490025 18.581287 7.333379 7.918478 4.620304 -4.534554 -0.530584 -10.072026 8.866002 -2.625356 18.265869 -10.905179 -1.317024 0.819836 2.995836 0.066794 -4.318357 -12.410732 8.626002 
0.621375 53.725719 -2.953839 -11.491794 1.376951 0.097863 28.233349 -1.701808 -0.781910 -0.459379 1.688993 -1.953695 -8.317470 2.948476 -0.357132 8.527672 5.419721 -62.628674 -3.935768 -8.057454 -0.426574 -64.178391 13.591006 -19.497055 -6.644139 -5.000000 45.000000 -24.064238 3.083060 29.877304 11.938213 12.709909 -0.666468 53.764473 -11.585090 -14.478232 8.846237 5.000000 45.000000 16.064507 -13.819931 23.150049 18.614563 7.283889 7.967118 4.504339 -4.526833 -0.511579 -10.021172 8.866456 -2.617684 18.226727 -10.934766 -1.352775 0.810493 2.968019 0.066479 -4.301446 -12.408861 8.628641 
0.635613 53.725719 -2.948240 -11.473181 1.396484 0.058814 28.213448 -1.723554 -0.780975 -0.448701 1.649940 -1.963179 -8.258518 2.890543 -0.348373 8.593298 5.414462 -62.658291 -4.013673 -8.028183 -0.425062 -64.189270 13.620812 -19.559950 -6.712307 -5.000000 45.000000 -23.976906 3.103901 29.877447 11.948563 12.758669 -0.668991 53.798164 -11.624167 -14.559541 8.859387 5.000000 45.000000 15.510698 -13.643835 22.552330 18.677095 7.235471 7.955040 4.348145 -4.515800 -0.499255 -9.954979 8.874428 -2.618816 18.210039 -10.964973 -1.388676 0.781371 2.976065 0.094315 -4.296896 -12.331172 8.639697 
0.651146 53.726398 -2.943789 -11.444830 1.416016 0.019767 28.203953 -1.740837 -0.787965 -0.448245 1.630415 -1.963182 -8.209284 2.822953 -0.338154 8.648589 5.398267 -62.645046 -4.062428 -8.018424 -0.423195 -64.175529 13.631348 -19.587854 -6.760538 -5.000000 45.000000 -23.879066 3.074791 29.862633 11.958680 12.787925 -0.670505 53.830376 -11.657422 -14.635111 8.879073 5.000000 45.000000 15.055574 -13.516265 22.066307 18.746159 7.167944 7.908809 4.201285 -4.506867 -0.497510 -9.906553 8.963920 -2.611582 18.194986 -11.030669 -1.424316 0.769370 2.979201 0.093121 -4.260675 -12.251405 8.666605 
0.671761 53.729816 -2.943924 -11.426031 1.464844 -0.009762 28.205393 -1.804613 -0.834178 -0.439392 1.669466 -2.002239 -8.169608 2.716742 -0.322095 8.622464 5.338762 -62.485077 -4.043190 -8.057435 -0.426573 -64.110939 13.599030 -19.532557 -6.748296 -5.000000 45.000000 -23.783501 2.915430 29.800734 11.958797 12.797679 -0.671010 53.852062 -11.671875 -14.648828 8.928177 5.000000 45.000000 15.003467 -13.554848 21.997147 18.753445 7.079056 7.668737 4.056854 -4.546313 -0.486866 -9.818183 9.294941 -2.511938 18.163521 -11.122941 -1.453151 0.790335 3.014183 0.103760 -4.248555 -12.223670 8.742824 
0.692370 53.733250 -2.944060 -11.397516 1.513672 -0.039049 28.187124 -1.863537 -0.867182 -0.440076 1.698755 -2.041585 -8.120249 2.620186 -0.307495 8.585282 5.276659 -62.333862 -4.024029 -8.106200 -0.429092 -64.044777 13.562338 -19.471004 -6.736062 -5.000000 45.000000 -23.679544 2.747512 29.729874 11.958915 12.807430 -0.671515 53.875965 -11.684181 -14.676031 8.968039 5.000000 45.000000 14.943151 -13.593456 21.908836 18.793650 7.011128 7.423105 3.900863 -4.604869 -0.456159 -9.758600 9.546311 -2.438036 18.134027 -11.230769 -1.497019 0.809154 3.049767 0.124140 -4.232056 -12.156951 8.805106 
0.717483 53.732555 -2.955601 -11.358211 1.542968 -0.029286 28.217302 -1.872951 -0.923818 -0.442234 1.728009 -2.080625 -8.129757 2.571908 -0.300195 8.582408 5.195479 -62.181019 -4.004721 -8.135461 -0.430604 -64.001869 13.511711 -19.381639 -6.785719 -5.000000 45.000000 -23.619003 2.690176 29.657505 11.970495 12.776148 -0.679317 53.931629 -11.671482 -14.674420 9.015891 5.000000 45.000000 14.783905 -13.583753 21.849064 18.719587 6.973163 7.284667 3.911776 -4.634221 -0.447635 -9.725223 9.588979 -2.334579 18.061413 -11.315142 -1.574923 0.869268 3.093967 0.118241 -4.194072 -12.091547 8.942539 
